<svg width="542" height="130" viewBox="0 0 542 130" fill="none" xmlns="http://www.w3.org/2000/svg">
<rect x="0.5" y="0.5" width="541" height="129" rx="9.5" fill="#101010"/>
<rect x="0.5" y="0.5" width="541" height="129" rx="9.5" stroke="#262626"/>
<path opacity="0.5" d="M136.827 57H134.497L139.732 42.4545H142.267L147.501 57H145.172L141.06 45.0966H140.946L136.827 57ZM137.217 51.304H144.774V53.1506H137.217V51.304ZM151.197 42.4545V57H149.002V42.4545H151.197ZM170.566 47.1847H168.351C168.265 46.7112 168.107 46.2945 167.875 45.9347C167.643 45.5748 167.359 45.2694 167.022 45.0185C166.686 44.7675 166.31 44.5781 165.893 44.4503C165.481 44.3224 165.043 44.2585 164.579 44.2585C163.741 44.2585 162.991 44.4692 162.328 44.8906C161.67 45.312 161.149 45.9299 160.765 46.7443C160.387 47.5587 160.197 48.553 160.197 49.7273C160.197 50.911 160.387 51.91 160.765 52.7244C161.149 53.5388 161.672 54.1544 162.335 54.571C162.998 54.9877 163.744 55.196 164.572 55.196C165.031 55.196 165.467 55.1345 165.879 55.0114C166.296 54.8835 166.672 54.6965 167.008 54.4503C167.344 54.2041 167.629 53.9034 167.861 53.5483C168.097 53.1884 168.261 52.7765 168.351 52.3125L170.566 52.3196C170.448 53.0346 170.218 53.6927 169.878 54.294C169.541 54.8906 169.108 55.4067 168.578 55.8423C168.052 56.2732 167.451 56.607 166.774 56.8438C166.097 57.0805 165.358 57.1989 164.558 57.1989C163.298 57.1989 162.176 56.9006 161.191 56.304C160.207 55.7027 159.43 54.8433 158.862 53.7259C158.298 52.6084 158.017 51.2756 158.017 49.7273C158.017 48.1742 158.301 46.8414 158.869 45.7287C159.437 44.6113 160.214 43.7543 161.199 43.1577C162.183 42.5563 163.303 42.2557 164.558 42.2557C165.33 42.2557 166.049 42.367 166.717 42.5895C167.389 42.8073 167.993 43.1293 168.528 43.5554C169.063 43.9768 169.506 44.4929 169.856 45.1037C170.207 45.7098 170.443 46.4034 170.566 47.1847ZM172.593 57V42.4545H174.787V48.7756H182.039V42.4545H184.24V57H182.039V50.6577H174.787V57H172.593ZM188.065 57H185.735L190.97 42.4545H193.505L198.74 57H196.41L192.298 45.0966H192.184L188.065 57ZM188.456 51.304H196.012V53.1506H188.456V51.304ZM197.804 44.3438V42.4545H209.061V44.3438H204.523V57H202.335V44.3438H197.804ZM210.949 57V42.4545H216.276C217.308 42.4545 218.162 42.625 218.839 42.9659C219.517 43.3021 220.023 43.759 220.359 44.3366C220.695 44.9096 220.864 45.5559 220.864 46.2756C220.864 46.8816 220.752 47.393 220.53 47.8097C220.307 48.2216 220.009 48.553 219.635 48.804C219.266 49.0502 218.858 49.2301 218.413 49.3438V49.4858C218.896 49.5095 219.367 49.6657 219.827 49.9545C220.291 50.2386 220.674 50.6435 220.977 51.169C221.28 51.6946 221.432 52.3338 221.432 53.0866C221.432 53.83 221.257 54.4976 220.906 55.0895C220.561 55.6766 220.026 56.143 219.301 56.4886C218.577 56.8295 217.651 57 216.524 57H210.949ZM213.143 55.1179H216.311C217.362 55.1179 218.115 54.9143 218.57 54.5071C219.024 54.0999 219.251 53.5909 219.251 52.9801C219.251 52.5208 219.135 52.0994 218.903 51.7159C218.671 51.3324 218.34 51.027 217.909 50.7997C217.483 50.5724 216.976 50.4588 216.389 50.4588H213.143V55.1179ZM213.143 48.7472H216.084C216.576 48.7472 217.019 48.6525 217.412 48.4631C217.81 48.2737 218.124 48.0085 218.356 47.6676C218.593 47.322 218.712 46.9148 218.712 46.446C218.712 45.8447 218.501 45.3404 218.079 44.9332C217.658 44.526 217.012 44.3224 216.141 44.3224H213.143V48.7472ZM236.07 49.7273C236.07 51.2803 235.786 52.6155 235.217 53.733C234.649 54.8456 233.87 55.7027 232.881 56.304C231.896 56.9006 230.776 57.1989 229.521 57.1989C228.262 57.1989 227.137 56.9006 226.148 56.304C225.163 55.7027 224.386 54.8433 223.818 53.7259C223.25 52.6084 222.966 51.2756 222.966 49.7273C222.966 48.1742 223.25 46.8414 223.818 45.7287C224.386 44.6113 225.163 43.7543 226.148 43.1577C227.137 42.5563 228.262 42.2557 229.521 42.2557C230.776 42.2557 231.896 42.5563 232.881 43.1577C233.87 43.7543 234.649 44.6113 235.217 45.7287C235.786 46.8414 236.07 48.1742 236.07 49.7273ZM233.896 49.7273C233.896 48.5436 233.705 47.5469 233.321 46.7372C232.942 45.9228 232.421 45.3073 231.759 44.8906C231.1 44.4692 230.355 44.2585 229.521 44.2585C228.683 44.2585 227.935 44.4692 227.277 44.8906C226.619 45.3073 226.098 45.9228 225.715 46.7372C225.336 47.5469 225.146 48.5436 225.146 49.7273C225.146 50.911 225.336 51.91 225.715 52.7244C226.098 53.5341 226.619 54.1496 227.277 54.571C227.935 54.9877 228.683 55.196 229.521 55.196C230.355 55.196 231.1 54.9877 231.759 54.571C232.421 54.1496 232.942 53.5341 233.321 52.7244C233.705 51.91 233.896 50.911 233.896 49.7273ZM236.863 44.3438V42.4545H248.121V44.3438H243.582V57H241.395V44.3438H236.863ZM254.701 57V42.4545H260.028C261.06 42.4545 261.915 42.625 262.592 42.9659C263.269 43.3021 263.775 43.759 264.112 44.3366C264.448 44.9096 264.616 45.5559 264.616 46.2756C264.616 46.8816 264.505 47.393 264.282 47.8097C264.06 48.2216 263.761 48.553 263.387 48.804C263.018 49.0502 262.611 49.2301 262.166 49.3438V49.4858C262.649 49.5095 263.12 49.6657 263.579 49.9545C264.043 50.2386 264.427 50.6435 264.73 51.169C265.033 51.6946 265.184 52.3338 265.184 53.0866C265.184 53.83 265.009 54.4976 264.659 55.0895C264.313 55.6766 263.778 56.143 263.053 56.4886C262.329 56.8295 261.403 57 260.276 57H254.701ZM256.896 55.1179H260.063C261.114 55.1179 261.867 54.9143 262.322 54.5071C262.776 54.0999 263.004 53.5909 263.004 52.9801C263.004 52.5208 262.888 52.0994 262.656 51.7159C262.424 51.3324 262.092 51.027 261.661 50.7997C261.235 50.5724 260.729 50.4588 260.141 50.4588H256.896V55.1179ZM256.896 48.7472H259.836C260.329 48.7472 260.771 48.6525 261.164 48.4631C261.562 48.2737 261.877 48.0085 262.109 47.6676C262.346 47.322 262.464 46.9148 262.464 46.446C262.464 45.8447 262.253 45.3404 261.832 44.9332C261.41 44.526 260.764 44.3224 259.893 44.3224H256.896V48.7472ZM276.541 42.4545H278.742V52.0213C278.742 53.0393 278.503 53.9413 278.025 54.7273C277.547 55.5085 276.875 56.1241 276.008 56.5739C275.142 57.0189 274.126 57.2415 272.961 57.2415C271.801 57.2415 270.788 57.0189 269.921 56.5739C269.055 56.1241 268.383 55.5085 267.904 54.7273C267.426 53.9413 267.187 53.0393 267.187 52.0213V42.4545H269.382V51.8438C269.382 52.5019 269.526 53.0866 269.815 53.598C270.108 54.1094 270.523 54.5118 271.058 54.8054C271.593 55.0942 272.227 55.2386 272.961 55.2386C273.7 55.2386 274.337 55.0942 274.872 54.8054C275.412 54.5118 275.823 54.1094 276.108 53.598C276.396 53.0866 276.541 52.5019 276.541 51.8438V42.4545ZM283.528 42.4545V57H281.333V42.4545H283.528ZM286.124 57V42.4545H288.318V55.1108H294.909V57H286.124ZM301.522 57H296.813V42.4545H301.671C303.096 42.4545 304.32 42.7457 305.343 43.3281C306.365 43.9058 307.149 44.7367 307.694 45.821C308.243 46.9006 308.517 48.1955 308.517 49.706C308.517 51.2211 308.24 52.5232 307.686 53.6122C307.137 54.7012 306.342 55.5393 305.3 56.1264C304.258 56.7088 302.999 57 301.522 57ZM299.007 55.0824H301.401C302.509 55.0824 303.43 54.8741 304.164 54.4574C304.898 54.036 305.447 53.4276 305.811 52.6321C306.176 51.8319 306.358 50.8565 306.358 49.706C306.358 48.5649 306.176 47.5966 305.811 46.8011C305.452 46.0057 304.914 45.402 304.199 44.9901C303.484 44.5781 302.596 44.3722 301.536 44.3722H299.007V55.0824ZM312.841 42.4545V57H310.646V42.4545H312.841ZM327.177 42.4545V57H325.16L317.767 46.3324H317.632V57H315.437V42.4545H317.468L324.869 53.1364H325.004V42.4545H327.177ZM339.622 47.0497C339.485 46.6188 339.3 46.233 339.068 45.892C338.841 45.5464 338.569 45.2528 338.251 45.0114C337.934 44.7652 337.572 44.5781 337.165 44.4503C336.762 44.3224 336.32 44.2585 335.837 44.2585C335.018 44.2585 334.279 44.4692 333.621 44.8906C332.963 45.312 332.442 45.9299 332.058 46.7443C331.68 47.554 331.49 48.5459 331.49 49.7202C331.49 50.8991 331.682 51.8958 332.065 52.7102C332.449 53.5246 332.975 54.1425 333.642 54.5639C334.31 54.9853 335.07 55.196 335.922 55.196C336.713 55.196 337.402 55.035 337.989 54.7131C338.581 54.3911 339.037 53.9366 339.359 53.3494C339.686 52.7576 339.85 52.0616 339.85 51.2614L340.418 51.3679H336.256V49.5568H341.973V51.2116C341.973 52.4332 341.713 53.4938 341.192 54.3935C340.676 55.2884 339.961 55.9796 339.047 56.4673C338.138 56.955 337.096 57.1989 335.922 57.1989C334.606 57.1989 333.45 56.8958 332.456 56.2898C331.466 55.6837 330.695 54.8243 330.141 53.7116C329.587 52.5942 329.31 51.2685 329.31 49.7344C329.31 48.5743 329.471 47.5327 329.793 46.6094C330.115 45.6861 330.567 44.9025 331.149 44.2585C331.736 43.6098 332.425 43.1151 333.216 42.7741C334.011 42.4285 334.88 42.2557 335.823 42.2557C336.608 42.2557 337.34 42.3717 338.017 42.6037C338.699 42.8357 339.305 43.1648 339.835 43.5909C340.37 44.017 340.813 44.5237 341.163 45.1108C341.514 45.6932 341.751 46.3395 341.874 47.0497H339.622Z" fill="white"/>
<path opacity="0.5" d="M135.886 89H134.409L138.682 77.3636H140.136L144.409 89H142.932L139.455 79.2045H139.364L135.886 89ZM136.432 84.4545H142.386V85.7045H136.432V84.4545ZM145.56 89V80.2727H146.855V81.5909H146.946C147.105 81.1591 147.393 80.8087 147.81 80.5398C148.226 80.2708 148.696 80.1364 149.219 80.1364C149.317 80.1364 149.44 80.1383 149.588 80.142C149.736 80.1458 149.848 80.1515 149.923 80.1591V81.5227C149.878 81.5114 149.774 81.4943 149.611 81.4716C149.452 81.4451 149.283 81.4318 149.105 81.4318C148.681 81.4318 148.302 81.5208 147.969 81.6989C147.639 81.8731 147.378 82.1155 147.185 82.4261C146.995 82.733 146.901 83.0833 146.901 83.4773V89H145.56ZM155.375 80.2727V81.4091H150.853V80.2727H155.375ZM152.171 78.1818H153.512V86.5C153.512 86.8788 153.567 87.1629 153.676 87.3523C153.79 87.5379 153.934 87.6629 154.108 87.7273C154.286 87.7879 154.474 87.8182 154.671 87.8182C154.818 87.8182 154.94 87.8106 155.034 87.7955C155.129 87.7765 155.205 87.7614 155.262 87.75L155.534 88.9545C155.443 88.9886 155.317 89.0227 155.154 89.0568C154.991 89.0947 154.784 89.1136 154.534 89.1136C154.156 89.1136 153.784 89.0322 153.421 88.8693C153.061 88.7064 152.762 88.4583 152.523 88.125C152.288 87.7917 152.171 87.3712 152.171 86.8636V78.1818ZM156.912 89V80.2727H158.253V89H156.912ZM157.594 78.8182C157.333 78.8182 157.107 78.7292 156.918 78.5511C156.732 78.3731 156.64 78.1591 156.64 77.9091C156.64 77.6591 156.732 77.4451 156.918 77.267C157.107 77.089 157.333 77 157.594 77C157.855 77 158.079 77.089 158.265 77.267C158.454 77.4451 158.549 77.6591 158.549 77.9091C158.549 78.1591 158.454 78.3731 158.265 78.5511C158.079 78.7292 157.855 78.8182 157.594 78.8182ZM163.775 89.1818C162.956 89.1818 162.252 88.9886 161.661 88.6023C161.07 88.2159 160.616 87.6837 160.297 87.0057C159.979 86.3277 159.82 85.553 159.82 84.6818C159.82 83.7955 159.983 83.0133 160.309 82.3352C160.638 81.6534 161.097 81.1212 161.684 80.7386C162.275 80.3523 162.964 80.1591 163.752 80.1591C164.366 80.1591 164.919 80.2727 165.411 80.5C165.903 80.7273 166.307 81.0455 166.621 81.4545C166.936 81.8636 167.131 82.3409 167.206 82.8864H165.866C165.763 82.4886 165.536 82.1364 165.184 81.8295C164.835 81.5189 164.366 81.3636 163.775 81.3636C163.252 81.3636 162.794 81.5 162.4 81.7727C162.009 82.0417 161.705 82.4223 161.485 82.9148C161.269 83.4034 161.161 83.9773 161.161 84.6364C161.161 85.3106 161.267 85.8977 161.479 86.3977C161.695 86.8977 161.998 87.286 162.388 87.5625C162.782 87.839 163.244 87.9773 163.775 87.9773C164.123 87.9773 164.439 87.9167 164.723 87.7955C165.008 87.6742 165.248 87.5 165.445 87.2727C165.642 87.0455 165.782 86.7727 165.866 86.4545H167.206C167.131 86.9697 166.943 87.4337 166.644 87.8466C166.348 88.2557 165.956 88.5814 165.468 88.8239C164.983 89.0625 164.419 89.1818 163.775 89.1818ZM170.028 77.3636V89H168.687V77.3636H170.028ZM175.663 89.1818C174.822 89.1818 174.096 88.9962 173.486 88.625C172.88 88.25 172.413 87.7273 172.083 87.0568C171.757 86.3826 171.594 85.5985 171.594 84.7045C171.594 83.8106 171.757 83.0227 172.083 82.3409C172.413 81.6553 172.871 81.1212 173.458 80.7386C174.049 80.3523 174.738 80.1591 175.526 80.1591C175.981 80.1591 176.43 80.2348 176.873 80.3864C177.316 80.5379 177.719 80.7841 178.083 81.125C178.447 81.4621 178.736 81.9091 178.952 82.4659C179.168 83.0227 179.276 83.7083 179.276 84.5227V85.0909H172.549V83.9318H177.913C177.913 83.4394 177.814 83 177.617 82.6136C177.424 82.2273 177.147 81.9223 176.788 81.6989C176.432 81.4754 176.011 81.3636 175.526 81.3636C174.992 81.3636 174.53 81.4962 174.14 81.7614C173.754 82.0227 173.456 82.3636 173.248 82.7841C173.04 83.2045 172.935 83.6553 172.935 84.1364V84.9091C172.935 85.5682 173.049 86.1269 173.276 86.5852C173.507 87.0398 173.827 87.3864 174.236 87.625C174.646 87.8598 175.121 87.9773 175.663 87.9773C176.015 87.9773 176.333 87.928 176.617 87.8295C176.905 87.7273 177.153 87.5758 177.361 87.375C177.57 87.1705 177.731 86.9167 177.844 86.6136L179.14 86.9773C179.004 87.4167 178.774 87.803 178.452 88.1364C178.13 88.4659 177.733 88.7235 177.259 88.9091C176.786 89.0909 176.254 89.1818 175.663 89.1818ZM187.018 82.2273L185.813 82.5682C185.738 82.3674 185.626 82.1723 185.478 81.983C185.334 81.7898 185.137 81.6307 184.887 81.5057C184.637 81.3807 184.317 81.3182 183.927 81.3182C183.393 81.3182 182.948 81.4413 182.592 81.6875C182.239 81.9299 182.063 82.2386 182.063 82.6136C182.063 82.947 182.185 83.2102 182.427 83.4034C182.669 83.5966 183.048 83.7576 183.563 83.8864L184.859 84.2045C185.639 84.3939 186.22 84.6837 186.603 85.0739C186.986 85.4602 187.177 85.9583 187.177 86.5682C187.177 87.0682 187.033 87.5152 186.745 87.9091C186.461 88.303 186.063 88.6136 185.552 88.8409C185.041 89.0682 184.446 89.1818 183.768 89.1818C182.878 89.1818 182.141 88.9886 181.558 88.6023C180.974 88.2159 180.605 87.6515 180.45 86.9091L181.722 86.5909C181.844 87.0606 182.073 87.4129 182.41 87.6477C182.751 87.8826 183.196 88 183.745 88C184.37 88 184.866 87.8674 185.234 87.6023C185.605 87.3333 185.791 87.0114 185.791 86.6364C185.791 86.3333 185.685 86.0795 185.472 85.875C185.26 85.6667 184.935 85.5114 184.495 85.4091L183.041 85.0682C182.241 84.8788 181.654 84.5852 181.279 84.1875C180.908 83.786 180.722 83.2841 180.722 82.6818C180.722 82.1894 180.861 81.7538 181.137 81.375C181.417 80.9962 181.798 80.6989 182.279 80.483C182.764 80.267 183.313 80.1591 183.927 80.1591C184.791 80.1591 185.469 80.3485 185.961 80.7273C186.457 81.1061 186.81 81.6061 187.018 82.2273ZM196.281 89.1818C195.463 89.1818 194.758 88.9886 194.167 88.6023C193.576 88.2159 193.122 87.6837 192.804 87.0057C192.485 86.3277 192.326 85.553 192.326 84.6818C192.326 83.7955 192.489 83.0133 192.815 82.3352C193.144 81.6534 193.603 81.1212 194.19 80.7386C194.781 80.3523 195.47 80.1591 196.258 80.1591C196.872 80.1591 197.425 80.2727 197.917 80.5C198.41 80.7273 198.813 81.0455 199.127 81.4545C199.442 81.8636 199.637 82.3409 199.713 82.8864H198.372C198.269 82.4886 198.042 82.1364 197.69 81.8295C197.341 81.5189 196.872 81.3636 196.281 81.3636C195.758 81.3636 195.3 81.5 194.906 81.7727C194.516 82.0417 194.211 82.4223 193.991 82.9148C193.775 83.4034 193.667 83.9773 193.667 84.6364C193.667 85.3106 193.773 85.8977 193.985 86.3977C194.201 86.8977 194.504 87.286 194.894 87.5625C195.288 87.839 195.751 87.9773 196.281 87.9773C196.629 87.9773 196.946 87.9167 197.23 87.7955C197.514 87.6742 197.754 87.5 197.951 87.2727C198.148 87.0455 198.288 86.7727 198.372 86.4545H199.713C199.637 86.9697 199.449 87.4337 199.15 87.8466C198.855 88.2557 198.463 88.5814 197.974 88.8239C197.489 89.0625 196.925 89.1818 196.281 89.1818ZM204.738 89.1818C203.95 89.1818 203.259 88.9943 202.664 88.6193C202.074 88.2443 201.611 87.7197 201.278 87.0455C200.949 86.3712 200.784 85.5833 200.784 84.6818C200.784 83.7727 200.949 82.9792 201.278 82.3011C201.611 81.6231 202.074 81.0966 202.664 80.7216C203.259 80.3466 203.95 80.1591 204.738 80.1591C205.526 80.1591 206.216 80.3466 206.807 80.7216C207.401 81.0966 207.863 81.6231 208.193 82.3011C208.526 82.9792 208.693 83.7727 208.693 84.6818C208.693 85.5833 208.526 86.3712 208.193 87.0455C207.863 87.7197 207.401 88.2443 206.807 88.6193C206.216 88.9943 205.526 89.1818 204.738 89.1818ZM204.738 87.9773C205.337 87.9773 205.829 87.8239 206.216 87.517C206.602 87.2102 206.888 86.8068 207.074 86.3068C207.259 85.8068 207.352 85.2652 207.352 84.6818C207.352 84.0985 207.259 83.5549 207.074 83.0511C206.888 82.5473 206.602 82.1402 206.216 81.8295C205.829 81.5189 205.337 81.3636 204.738 81.3636C204.14 81.3636 203.647 81.5189 203.261 81.8295C202.875 82.1402 202.589 82.5473 202.403 83.0511C202.218 83.5549 202.125 84.0985 202.125 84.6818C202.125 85.2652 202.218 85.8068 202.403 86.3068C202.589 86.8068 202.875 87.2102 203.261 87.517C203.647 87.8239 204.14 87.9773 204.738 87.9773ZM217.084 80.2727L213.856 89H212.493L209.265 80.2727H210.72L213.129 87.2273H213.22L215.629 80.2727H217.084ZM221.72 89.1818C220.879 89.1818 220.154 88.9962 219.544 88.625C218.938 88.25 218.47 87.7273 218.141 87.0568C217.815 86.3826 217.652 85.5985 217.652 84.7045C217.652 83.8106 217.815 83.0227 218.141 82.3409C218.47 81.6553 218.928 81.1212 219.516 80.7386C220.106 80.3523 220.796 80.1591 221.584 80.1591C222.038 80.1591 222.487 80.2348 222.93 80.3864C223.374 80.5379 223.777 80.7841 224.141 81.125C224.504 81.4621 224.794 81.9091 225.01 82.4659C225.226 83.0227 225.334 83.7083 225.334 84.5227V85.0909H218.606V83.9318H223.97C223.97 83.4394 223.872 83 223.675 82.6136C223.481 82.2273 223.205 81.9223 222.845 81.6989C222.489 81.4754 222.069 81.3636 221.584 81.3636C221.05 81.3636 220.588 81.4962 220.197 81.7614C219.811 82.0227 219.514 82.3636 219.305 82.7841C219.097 83.2045 218.993 83.6553 218.993 84.1364V84.9091C218.993 85.5682 219.106 86.1269 219.334 86.5852C219.565 87.0398 219.885 87.3864 220.294 87.625C220.703 87.8598 221.178 87.9773 221.72 87.9773C222.072 87.9773 222.391 87.928 222.675 87.8295C222.963 87.7273 223.211 87.5758 223.419 87.375C223.627 87.1705 223.788 86.9167 223.902 86.6136L225.197 86.9773C225.061 87.4167 224.832 87.803 224.51 88.1364C224.188 88.4659 223.79 88.7235 223.317 88.9091C222.843 89.0909 222.311 89.1818 221.72 89.1818ZM226.894 89V80.2727H228.189V81.5909H228.28C228.439 81.1591 228.727 80.8087 229.144 80.5398C229.56 80.2708 230.03 80.1364 230.553 80.1364C230.651 80.1364 230.774 80.1383 230.922 80.142C231.07 80.1458 231.181 80.1515 231.257 80.1591V81.5227C231.212 81.5114 231.108 81.4943 230.945 81.4716C230.786 81.4451 230.617 81.4318 230.439 81.4318C230.015 81.4318 229.636 81.5208 229.303 81.6989C228.973 81.8731 228.712 82.1155 228.519 82.4261C228.329 82.733 228.234 83.0833 228.234 83.4773V89H226.894ZM240.273 80.2727V81.4091H235.568V80.2727H240.273ZM236.978 89V79.0682C236.978 78.5682 237.095 78.1515 237.33 77.8182C237.565 77.4848 237.87 77.2348 238.245 77.0682C238.62 76.9015 239.015 76.8182 239.432 76.8182C239.762 76.8182 240.031 76.8447 240.239 76.8977C240.447 76.9508 240.603 77 240.705 77.0455L240.318 78.2045C240.25 78.1818 240.156 78.1534 240.034 78.1193C239.917 78.0852 239.762 78.0682 239.568 78.0682C239.125 78.0682 238.805 78.1799 238.608 78.4034C238.415 78.6269 238.318 78.9545 238.318 79.3864V89H236.978ZM241.672 89V80.2727H243.013V89H241.672ZM242.354 78.8182C242.093 78.8182 241.867 78.7292 241.678 78.5511C241.492 78.3731 241.4 78.1591 241.4 77.9091C241.4 77.6591 241.492 77.4451 241.678 77.267C241.867 77.089 242.093 77 242.354 77C242.615 77 242.839 77.089 243.025 77.267C243.214 77.4451 243.309 77.6591 243.309 77.9091C243.309 78.1591 243.214 78.3731 243.025 78.5511C242.839 78.7292 242.615 78.8182 242.354 78.8182ZM248.648 89.1818C247.807 89.1818 247.082 88.9962 246.472 88.625C245.866 88.25 245.398 87.7273 245.069 87.0568C244.743 86.3826 244.58 85.5985 244.58 84.7045C244.58 83.8106 244.743 83.0227 245.069 82.3409C245.398 81.6553 245.857 81.1212 246.444 80.7386C247.035 80.3523 247.724 80.1591 248.512 80.1591C248.966 80.1591 249.415 80.2348 249.858 80.3864C250.302 80.5379 250.705 80.7841 251.069 81.125C251.432 81.4621 251.722 81.9091 251.938 82.4659C252.154 83.0227 252.262 83.7083 252.262 84.5227V85.0909H245.535V83.9318H250.898C250.898 83.4394 250.8 83 250.603 82.6136C250.41 82.2273 250.133 81.9223 249.773 81.6989C249.417 81.4754 248.997 81.3636 248.512 81.3636C247.978 81.3636 247.516 81.4962 247.126 81.7614C246.739 82.0227 246.442 82.3636 246.233 82.7841C246.025 83.2045 245.921 83.6553 245.921 84.1364V84.9091C245.921 85.5682 246.035 86.1269 246.262 86.5852C246.493 87.0398 246.813 87.3864 247.222 87.625C247.631 87.8598 248.107 87.9773 248.648 87.9773C249.001 87.9773 249.319 87.928 249.603 87.8295C249.891 87.7273 250.139 87.5758 250.347 87.375C250.555 87.1705 250.716 86.9167 250.83 86.6136L252.126 86.9773C251.989 87.4167 251.76 87.803 251.438 88.1364C251.116 88.4659 250.718 88.7235 250.245 88.9091C249.771 89.0909 249.239 89.1818 248.648 89.1818ZM255.163 77.3636V89H253.822V77.3636H255.163ZM260.434 89.1818C259.707 89.1818 259.065 88.9981 258.508 88.6307C257.951 88.2595 257.515 87.7367 257.201 87.0625C256.887 86.3845 256.729 85.5833 256.729 84.6591C256.729 83.7424 256.887 82.947 257.201 82.2727C257.515 81.5985 257.953 81.0777 258.514 80.7102C259.074 80.3428 259.722 80.1591 260.457 80.1591C261.025 80.1591 261.474 80.2538 261.803 80.4432C262.137 80.6288 262.39 80.8409 262.565 81.0795C262.743 81.3144 262.881 81.5076 262.979 81.6591H263.093V77.3636H264.434V89H263.139V87.6591H262.979C262.881 87.8182 262.741 88.0189 262.559 88.2614C262.377 88.5 262.118 88.714 261.781 88.9034C261.443 89.089 260.995 89.1818 260.434 89.1818ZM260.616 87.9773C261.154 87.9773 261.608 87.8371 261.979 87.5568C262.351 87.2727 262.633 86.8807 262.826 86.3807C263.019 85.8769 263.116 85.2955 263.116 84.6364C263.116 83.9848 263.021 83.4148 262.832 82.9261C262.642 82.4337 262.362 82.0511 261.991 81.7784C261.62 81.5019 261.161 81.3636 260.616 81.3636C260.048 81.3636 259.574 81.5095 259.195 81.8011C258.82 82.089 258.538 82.4811 258.349 82.9773C258.163 83.4697 258.07 84.0227 258.07 84.6364C258.07 85.2576 258.165 85.822 258.354 86.3295C258.548 86.8333 258.832 87.2348 259.207 87.5341C259.585 87.8295 260.055 87.9773 260.616 87.9773ZM272.778 82.2273L271.573 82.5682C271.498 82.3674 271.386 82.1723 271.238 81.983C271.094 81.7898 270.897 81.6307 270.647 81.5057C270.397 81.3807 270.077 81.3182 269.687 81.3182C269.153 81.3182 268.708 81.4413 268.352 81.6875C267.999 81.9299 267.823 82.2386 267.823 82.6136C267.823 82.947 267.945 83.2102 268.187 83.4034C268.429 83.5966 268.808 83.7576 269.323 83.8864L270.619 84.2045C271.399 84.3939 271.98 84.6837 272.363 85.0739C272.746 85.4602 272.937 85.9583 272.937 86.5682C272.937 87.0682 272.793 87.5152 272.505 87.9091C272.221 88.303 271.823 88.6136 271.312 88.8409C270.801 89.0682 270.206 89.1818 269.528 89.1818C268.638 89.1818 267.901 88.9886 267.318 88.6023C266.734 88.2159 266.365 87.6515 266.21 86.9091L267.482 86.5909C267.604 87.0606 267.833 87.4129 268.17 87.6477C268.511 87.8826 268.956 88 269.505 88C270.13 88 270.626 87.8674 270.994 87.6023C271.365 87.3333 271.551 87.0114 271.551 86.6364C271.551 86.3333 271.445 86.0795 271.232 85.875C271.02 85.6667 270.695 85.5114 270.255 85.4091L268.801 85.0682C268.001 84.8788 267.414 84.5852 267.039 84.1875C266.668 83.786 266.482 83.2841 266.482 82.6818C266.482 82.1894 266.621 81.7538 266.897 81.375C267.177 80.9962 267.558 80.6989 268.039 80.483C268.524 80.267 269.073 80.1591 269.687 80.1591C270.551 80.1591 271.229 80.3485 271.721 80.7273C272.217 81.1061 272.57 81.6061 272.778 82.2273ZM279.836 77.3636V89H278.495V77.3636H279.836ZM281.812 89V80.2727H283.153V89H281.812ZM282.494 78.8182C282.233 78.8182 282.007 78.7292 281.818 78.5511C281.632 78.3731 281.54 78.1591 281.54 77.9091C281.54 77.6591 281.632 77.4451 281.818 77.267C282.007 77.089 282.233 77 282.494 77C282.755 77 282.979 77.089 283.165 77.267C283.354 77.4451 283.449 77.6591 283.449 77.9091C283.449 78.1591 283.354 78.3731 283.165 78.5511C282.979 78.7292 282.755 78.8182 282.494 78.8182ZM286.379 85.8182L286.356 84.1591H286.629L290.447 80.2727H292.106L288.038 84.3864H287.925L286.379 85.8182ZM285.129 89V77.3636H286.47V89H285.129ZM290.675 89L287.266 84.6818L288.22 83.75L292.379 89H290.675ZM296.652 89.1818C295.811 89.1818 295.086 88.9962 294.476 88.625C293.87 88.25 293.402 87.7273 293.072 87.0568C292.747 86.3826 292.584 85.5985 292.584 84.7045C292.584 83.8106 292.747 83.0227 293.072 82.3409C293.402 81.6553 293.86 81.1212 294.447 80.7386C295.038 80.3523 295.728 80.1591 296.516 80.1591C296.97 80.1591 297.419 80.2348 297.862 80.3864C298.305 80.5379 298.709 80.7841 299.072 81.125C299.436 81.4621 299.726 81.9091 299.942 82.4659C300.158 83.0227 300.266 83.7083 300.266 84.5227V85.0909H293.538V83.9318H298.902C298.902 83.4394 298.804 83 298.607 82.6136C298.413 82.2273 298.137 81.9223 297.777 81.6989C297.421 81.4754 297 81.3636 296.516 81.3636C295.982 81.3636 295.519 81.4962 295.129 81.7614C294.743 82.0227 294.446 82.3636 294.237 82.7841C294.029 83.2045 293.925 83.6553 293.925 84.1364V84.9091C293.925 85.5682 294.038 86.1269 294.266 86.5852C294.497 87.0398 294.817 87.3864 295.226 87.625C295.635 87.8598 296.11 87.9773 296.652 87.9773C297.004 87.9773 297.322 87.928 297.607 87.8295C297.894 87.7273 298.143 87.5758 298.351 87.375C298.559 87.1705 298.72 86.9167 298.834 86.6136L300.129 86.9773C299.993 87.4167 299.764 87.803 299.442 88.1364C299.12 88.4659 298.722 88.7235 298.249 88.9091C297.775 89.0909 297.243 89.1818 296.652 89.1818ZM306.504 89H305.027L309.3 77.3636H310.754L315.027 89H313.55L310.073 79.2045H309.982L306.504 89ZM307.05 84.4545H313.004V85.7045H307.05V84.4545ZM317.769 77.3636V89H316.36V77.3636H317.769ZM321.932 87.4091L321.841 88.0227C321.777 88.4545 321.678 88.9167 321.546 89.4091C321.417 89.9015 321.283 90.3655 321.143 90.8011C321.002 91.2367 320.887 91.5833 320.796 91.8409H319.773C319.822 91.5985 319.887 91.2784 319.966 90.8807C320.046 90.483 320.125 90.0379 320.205 89.5455C320.288 89.0568 320.357 88.5568 320.41 88.0455L320.478 87.4091H321.932ZM327.957 89V80.2727H329.252V81.5909H329.343C329.502 81.1591 329.79 80.8087 330.207 80.5398C330.623 80.2708 331.093 80.1364 331.616 80.1364C331.714 80.1364 331.837 80.1383 331.985 80.142C332.133 80.1458 332.245 80.1515 332.32 80.1591V81.5227C332.275 81.5114 332.171 81.4943 332.008 81.4716C331.849 81.4451 331.68 81.4318 331.502 81.4318C331.078 81.4318 330.699 81.5208 330.366 81.6989C330.036 81.8731 329.775 82.1155 329.582 82.4261C329.392 82.733 329.298 83.0833 329.298 83.4773V89H327.957ZM336.71 89.1818C335.922 89.1818 335.23 88.9943 334.636 88.6193C334.045 88.2443 333.583 87.7197 333.249 87.0455C332.92 86.3712 332.755 85.5833 332.755 84.6818C332.755 83.7727 332.92 82.9792 333.249 82.3011C333.583 81.6231 334.045 81.0966 334.636 80.7216C335.23 80.3466 335.922 80.1591 336.71 80.1591C337.497 80.1591 338.187 80.3466 338.778 80.7216C339.372 81.0966 339.835 81.6231 340.164 82.3011C340.497 82.9792 340.664 83.7727 340.664 84.6818C340.664 85.5833 340.497 86.3712 340.164 87.0455C339.835 87.7197 339.372 88.2443 338.778 88.6193C338.187 88.9943 337.497 89.1818 336.71 89.1818ZM336.71 87.9773C337.308 87.9773 337.801 87.8239 338.187 87.517C338.573 87.2102 338.859 86.8068 339.045 86.3068C339.23 85.8068 339.323 85.2652 339.323 84.6818C339.323 84.0985 339.23 83.5549 339.045 83.0511C338.859 82.5473 338.573 82.1402 338.187 81.8295C337.801 81.5189 337.308 81.3636 336.71 81.3636C336.111 81.3636 335.619 81.5189 335.232 81.8295C334.846 82.1402 334.56 82.5473 334.374 83.0511C334.189 83.5549 334.096 84.0985 334.096 84.6818C334.096 85.2652 334.189 85.8068 334.374 86.3068C334.56 86.8068 334.846 87.2102 335.232 87.517C335.619 87.8239 336.111 87.9773 336.71 87.9773ZM342.413 89V77.3636H343.754V81.6591H343.867C343.966 81.5076 344.102 81.3144 344.276 81.0795C344.455 80.8409 344.708 80.6288 345.038 80.4432C345.371 80.2538 345.822 80.1591 346.39 80.1591C347.125 80.1591 347.773 80.3428 348.333 80.7102C348.894 81.0777 349.331 81.5985 349.646 82.2727C349.96 82.947 350.117 83.7424 350.117 84.6591C350.117 85.5833 349.96 86.3845 349.646 87.0625C349.331 87.7367 348.896 88.2595 348.339 88.6307C347.782 88.9981 347.14 89.1818 346.413 89.1818C345.852 89.1818 345.403 89.089 345.066 88.9034C344.729 88.714 344.47 88.5 344.288 88.2614C344.106 88.0189 343.966 87.8182 343.867 87.6591H343.708V89H342.413ZM343.731 84.6364C343.731 85.2955 343.828 85.8769 344.021 86.3807C344.214 86.8807 344.496 87.2727 344.867 87.5568C345.239 87.8371 345.693 87.9773 346.231 87.9773C346.792 87.9773 347.259 87.8295 347.634 87.5341C348.013 87.2348 348.297 86.8333 348.487 86.3295C348.68 85.822 348.776 85.2576 348.776 84.6364C348.776 84.0227 348.682 83.4697 348.492 82.9773C348.307 82.4811 348.025 82.089 347.646 81.8011C347.271 81.5095 346.799 81.3636 346.231 81.3636C345.686 81.3636 345.227 81.5019 344.856 81.7784C344.485 82.0511 344.205 82.4337 344.015 82.9261C343.826 83.4148 343.731 83.9848 343.731 84.6364ZM355.234 89.1818C354.446 89.1818 353.755 88.9943 353.16 88.6193C352.569 88.2443 352.107 87.7197 351.774 87.0455C351.444 86.3712 351.279 85.5833 351.279 84.6818C351.279 83.7727 351.444 82.9792 351.774 82.3011C352.107 81.6231 352.569 81.0966 353.16 80.7216C353.755 80.3466 354.446 80.1591 355.234 80.1591C356.022 80.1591 356.711 80.3466 357.302 80.7216C357.897 81.0966 358.359 81.6231 358.689 82.3011C359.022 82.9792 359.189 83.7727 359.189 84.6818C359.189 85.5833 359.022 86.3712 358.689 87.0455C358.359 87.7197 357.897 88.2443 357.302 88.6193C356.711 88.9943 356.022 89.1818 355.234 89.1818ZM355.234 87.9773C355.832 87.9773 356.325 87.8239 356.711 87.517C357.098 87.2102 357.384 86.8068 357.569 86.3068C357.755 85.8068 357.848 85.2652 357.848 84.6818C357.848 84.0985 357.755 83.5549 357.569 83.0511C357.384 82.5473 357.098 82.1402 356.711 81.8295C356.325 81.5189 355.832 81.3636 355.234 81.3636C354.636 81.3636 354.143 81.5189 353.757 81.8295C353.37 82.1402 353.084 82.5473 352.899 83.0511C352.713 83.5549 352.62 84.0985 352.62 84.6818C352.62 85.2652 352.713 85.8068 352.899 86.3068C353.084 86.8068 353.37 87.2102 353.757 87.517C354.143 87.8239 354.636 87.9773 355.234 87.9773ZM364.551 80.2727V81.4091H360.028V80.2727H364.551ZM361.346 78.1818H362.687V86.5C362.687 86.8788 362.742 87.1629 362.852 87.3523C362.966 87.5379 363.11 87.6629 363.284 87.7273C363.462 87.7879 363.649 87.8182 363.846 87.8182C363.994 87.8182 364.115 87.8106 364.21 87.7955C364.305 87.7765 364.38 87.7614 364.437 87.75L364.71 88.9545C364.619 88.9886 364.492 89.0227 364.329 89.0568C364.166 89.0947 363.96 89.1136 363.71 89.1136C363.331 89.1136 362.96 89.0322 362.596 88.8693C362.236 88.7064 361.937 88.4583 361.699 88.125C361.464 87.7917 361.346 87.3712 361.346 86.8636V78.1818ZM366.088 89V80.2727H367.429V89H366.088ZM366.77 78.8182C366.508 78.8182 366.283 78.7292 366.094 78.5511C365.908 78.3731 365.815 78.1591 365.815 77.9091C365.815 77.6591 365.908 77.4451 366.094 77.267C366.283 77.089 366.508 77 366.77 77C367.031 77 367.255 77.089 367.44 77.267C367.63 77.4451 367.724 77.6591 367.724 77.9091C367.724 78.1591 367.63 78.3731 367.44 78.5511C367.255 78.7292 367.031 78.8182 366.77 78.8182ZM372.95 89.1818C372.132 89.1818 371.428 88.9886 370.837 88.6023C370.246 88.2159 369.791 87.6837 369.473 87.0057C369.155 86.3277 368.996 85.553 368.996 84.6818C368.996 83.7955 369.159 83.0133 369.484 82.3352C369.814 81.6534 370.272 81.1212 370.859 80.7386C371.45 80.3523 372.14 80.1591 372.928 80.1591C373.541 80.1591 374.094 80.2727 374.587 80.5C375.079 80.7273 375.482 81.0455 375.797 81.4545C376.111 81.8636 376.306 82.3409 376.382 82.8864H375.041C374.939 82.4886 374.712 82.1364 374.359 81.8295C374.011 81.5189 373.541 81.3636 372.95 81.3636C372.428 81.3636 371.969 81.5 371.575 81.7727C371.185 82.0417 370.88 82.4223 370.66 82.9148C370.445 83.4034 370.337 83.9773 370.337 84.6364C370.337 85.3106 370.443 85.8977 370.655 86.3977C370.871 86.8977 371.174 87.286 371.564 87.5625C371.958 87.839 372.42 87.9773 372.95 87.9773C373.299 87.9773 373.615 87.9167 373.899 87.7955C374.183 87.6742 374.424 87.5 374.621 87.2727C374.818 87.0455 374.958 86.7727 375.041 86.4545H376.382C376.306 86.9697 376.119 87.4337 375.82 87.8466C375.524 88.2557 375.132 88.5814 374.643 88.8239C374.159 89.0625 373.594 89.1818 372.95 89.1818ZM384.044 82.2273L382.84 82.5682C382.764 82.3674 382.652 82.1723 382.504 81.983C382.36 81.7898 382.163 81.6307 381.913 81.5057C381.663 81.3807 381.343 81.3182 380.953 81.3182C380.419 81.3182 379.974 81.4413 379.618 81.6875C379.266 81.9299 379.09 82.2386 379.09 82.6136C379.09 82.947 379.211 83.2102 379.453 83.4034C379.696 83.5966 380.074 83.7576 380.59 83.8864L381.885 84.2045C382.665 84.3939 383.247 84.6837 383.629 85.0739C384.012 85.4602 384.203 85.9583 384.203 86.5682C384.203 87.0682 384.059 87.5152 383.771 87.9091C383.487 88.303 383.09 88.6136 382.578 88.8409C382.067 89.0682 381.472 89.1818 380.794 89.1818C379.904 89.1818 379.167 88.9886 378.584 88.6023C378.001 88.2159 377.631 87.6515 377.476 86.9091L378.749 86.5909C378.87 87.0606 379.099 87.4129 379.436 87.6477C379.777 87.8826 380.222 88 380.771 88C381.396 88 381.893 87.8674 382.26 87.6023C382.631 87.3333 382.817 87.0114 382.817 86.6364C382.817 86.3333 382.711 86.0795 382.499 85.875C382.287 85.6667 381.961 85.5114 381.521 85.4091L380.067 85.0682C379.268 84.8788 378.68 84.5852 378.305 84.1875C377.934 83.786 377.749 83.2841 377.749 82.6818C377.749 82.1894 377.887 81.7538 378.163 81.375C378.444 80.9962 378.824 80.6989 379.305 80.483C379.79 80.267 380.34 80.1591 380.953 80.1591C381.817 80.1591 382.495 80.3485 382.987 80.7273C383.483 81.1061 383.836 81.6061 384.044 82.2273ZM387.742 87.4091L387.651 88.0227C387.586 88.4545 387.488 88.9167 387.355 89.4091C387.226 89.9015 387.092 90.3655 386.952 90.8011C386.812 91.2367 386.696 91.5833 386.605 91.8409H385.583C385.632 91.5985 385.696 91.2784 385.776 90.8807C385.855 90.483 385.935 90.0379 386.014 89.5455C386.098 89.0568 386.166 88.5568 386.219 88.0455L386.287 87.4091H387.742ZM393.948 89V77.3636H395.289V81.6591H395.402C395.501 81.5076 395.637 81.3144 395.811 81.0795C395.99 80.8409 396.243 80.6288 396.573 80.4432C396.906 80.2538 397.357 80.1591 397.925 80.1591C398.66 80.1591 399.308 80.3428 399.868 80.7102C400.429 81.0777 400.866 81.5985 401.181 82.2727C401.495 82.947 401.652 83.7424 401.652 84.6591C401.652 85.5833 401.495 86.3845 401.181 87.0625C400.866 87.7367 400.431 88.2595 399.874 88.6307C399.317 88.9981 398.675 89.1818 397.948 89.1818C397.387 89.1818 396.938 89.089 396.601 88.9034C396.264 88.714 396.005 88.5 395.823 88.2614C395.641 88.0189 395.501 87.8182 395.402 87.6591H395.243V89H393.948ZM395.266 84.6364C395.266 85.2955 395.363 85.8769 395.556 86.3807C395.749 86.8807 396.031 87.2727 396.402 87.5568C396.774 87.8371 397.228 87.9773 397.766 87.9773C398.327 87.9773 398.794 87.8295 399.169 87.5341C399.548 87.2348 399.832 86.8333 400.022 86.3295C400.215 85.822 400.311 85.2576 400.311 84.6364C400.311 84.0227 400.217 83.4697 400.027 82.9773C399.842 82.4811 399.56 82.089 399.181 81.8011C398.806 81.5095 398.334 81.3636 397.766 81.3636C397.221 81.3636 396.762 81.5019 396.391 81.7784C396.02 82.0511 395.74 82.4337 395.55 82.9261C395.361 83.4148 395.266 83.9848 395.266 84.6364ZM403.224 89V80.2727H404.564V89H403.224ZM403.905 78.8182C403.644 78.8182 403.419 78.7292 403.229 78.5511C403.044 78.3731 402.951 78.1591 402.951 77.9091C402.951 77.6591 403.044 77.4451 403.229 77.267C403.419 77.089 403.644 77 403.905 77C404.167 77 404.39 77.089 404.576 77.267C404.765 77.4451 404.86 77.6591 404.86 77.9091C404.86 78.1591 404.765 78.3731 404.576 78.5511C404.39 78.7292 404.167 78.8182 403.905 78.8182ZM410.086 89.1818C409.298 89.1818 408.607 88.9943 408.012 88.6193C407.421 88.2443 406.959 87.7197 406.626 87.0455C406.296 86.3712 406.131 85.5833 406.131 84.6818C406.131 83.7727 406.296 82.9792 406.626 82.3011C406.959 81.6231 407.421 81.0966 408.012 80.7216C408.607 80.3466 409.298 80.1591 410.086 80.1591C410.874 80.1591 411.563 80.3466 412.154 80.7216C412.749 81.0966 413.211 81.6231 413.54 82.3011C413.874 82.9792 414.04 83.7727 414.04 84.6818C414.04 85.5833 413.874 86.3712 413.54 87.0455C413.211 87.7197 412.749 88.2443 412.154 88.6193C411.563 88.9943 410.874 89.1818 410.086 89.1818ZM410.086 87.9773C410.684 87.9773 411.177 87.8239 411.563 87.517C411.949 87.2102 412.235 86.8068 412.421 86.3068C412.607 85.8068 412.699 85.2652 412.699 84.6818C412.699 84.0985 412.607 83.5549 412.421 83.0511C412.235 82.5473 411.949 82.1402 411.563 81.8295C411.177 81.5189 410.684 81.3636 410.086 81.3636C409.487 81.3636 408.995 81.5189 408.609 81.8295C408.222 82.1402 407.936 82.5473 407.751 83.0511C407.565 83.5549 407.472 84.0985 407.472 84.6818C407.472 85.2652 407.565 85.8068 407.751 86.3068C407.936 86.8068 408.222 87.2102 408.609 87.517C408.995 87.8239 409.487 87.9773 410.086 87.9773ZM419.403 80.2727V81.4091H414.88V80.2727H419.403ZM416.198 78.1818H417.539V86.5C417.539 86.8788 417.594 87.1629 417.704 87.3523C417.818 87.5379 417.961 87.6629 418.136 87.7273C418.314 87.7879 418.501 87.8182 418.698 87.8182C418.846 87.8182 418.967 87.8106 419.062 87.7955C419.157 87.7765 419.232 87.7614 419.289 87.75L419.562 88.9545C419.471 88.9886 419.344 89.0227 419.181 89.0568C419.018 89.0947 418.812 89.1136 418.562 89.1136C418.183 89.1136 417.812 89.0322 417.448 88.8693C417.088 88.7064 416.789 88.4583 416.55 88.125C416.316 87.7917 416.198 87.3712 416.198 86.8636V78.1818ZM424.505 89.1818C423.664 89.1818 422.939 88.9962 422.329 88.625C421.723 88.25 421.255 87.7273 420.926 87.0568C420.6 86.3826 420.437 85.5985 420.437 84.7045C420.437 83.8106 420.6 83.0227 420.926 82.3409C421.255 81.6553 421.713 81.1212 422.301 80.7386C422.891 80.3523 423.581 80.1591 424.369 80.1591C424.823 80.1591 425.272 80.2348 425.715 80.3864C426.159 80.5379 426.562 80.7841 426.926 81.125C427.289 81.4621 427.579 81.9091 427.795 82.4659C428.011 83.0227 428.119 83.7083 428.119 84.5227V85.0909H421.391V83.9318H426.755C426.755 83.4394 426.657 83 426.46 82.6136C426.266 82.2273 425.99 81.9223 425.63 81.6989C425.274 81.4754 424.854 81.3636 424.369 81.3636C423.835 81.3636 423.373 81.4962 422.982 81.7614C422.596 82.0227 422.299 82.3636 422.09 82.7841C421.882 83.2045 421.778 83.6553 421.778 84.1364V84.9091C421.778 85.5682 421.891 86.1269 422.119 86.5852C422.35 87.0398 422.67 87.3864 423.079 87.625C423.488 87.8598 423.963 87.9773 424.505 87.9773C424.857 87.9773 425.176 87.928 425.46 87.8295C425.748 87.7273 425.996 87.5758 426.204 87.375C426.412 87.1705 426.573 86.9167 426.687 86.6136L427.982 86.9773C427.846 87.4167 427.617 87.803 427.295 88.1364C426.973 88.4659 426.575 88.7235 426.102 88.9091C425.628 89.0909 425.096 89.1818 424.505 89.1818ZM433.224 89.1818C432.406 89.1818 431.701 88.9886 431.11 88.6023C430.519 88.2159 430.065 87.6837 429.747 87.0057C429.429 86.3277 429.269 85.553 429.269 84.6818C429.269 83.7955 429.432 83.0133 429.758 82.3352C430.088 81.6534 430.546 81.1212 431.133 80.7386C431.724 80.3523 432.413 80.1591 433.201 80.1591C433.815 80.1591 434.368 80.2727 434.86 80.5C435.353 80.7273 435.756 81.0455 436.071 81.4545C436.385 81.8636 436.58 82.3409 436.656 82.8864H435.315C435.213 82.4886 434.985 82.1364 434.633 81.8295C434.285 81.5189 433.815 81.3636 433.224 81.3636C432.701 81.3636 432.243 81.5 431.849 81.7727C431.459 82.0417 431.154 82.4223 430.934 82.9148C430.718 83.4034 430.61 83.9773 430.61 84.6364C430.61 85.3106 430.716 85.8977 430.929 86.3977C431.144 86.8977 431.447 87.286 431.838 87.5625C432.232 87.839 432.694 87.9773 433.224 87.9773C433.572 87.9773 433.889 87.9167 434.173 87.7955C434.457 87.6742 434.697 87.5 434.894 87.2727C435.091 87.0455 435.232 86.7727 435.315 86.4545H436.656C436.58 86.9697 436.393 87.4337 436.093 87.8466C435.798 88.2557 435.406 88.5814 434.917 88.8239C434.432 89.0625 433.868 89.1818 433.224 89.1818ZM439.477 83.75V89H438.136V77.3636H439.477V81.6364H439.591C439.795 81.1856 440.102 80.8277 440.511 80.5625C440.924 80.2936 441.473 80.1591 442.159 80.1591C442.753 80.1591 443.274 80.2784 443.721 80.517C444.168 80.7519 444.515 81.1136 444.761 81.6023C445.011 82.0871 445.136 82.7045 445.136 83.4545V89H443.795V83.5455C443.795 82.8523 443.615 82.3163 443.255 81.9375C442.899 81.5549 442.405 81.3636 441.772 81.3636C441.333 81.3636 440.939 81.4564 440.591 81.642C440.246 81.8277 439.973 82.0985 439.772 82.4545C439.575 82.8106 439.477 83.2424 439.477 83.75ZM448.45 83.75V89H447.109V80.2727H448.405V81.6364H448.518C448.723 81.1932 449.033 80.8371 449.45 80.5682C449.867 80.2955 450.405 80.1591 451.064 80.1591C451.655 80.1591 452.172 80.2803 452.615 80.5227C453.058 80.7614 453.403 81.125 453.649 81.6136C453.895 82.0985 454.018 82.7121 454.018 83.4545V89H452.677V83.5455C452.677 82.8598 452.499 82.3258 452.143 81.9432C451.787 81.5568 451.299 81.3636 450.677 81.3636C450.249 81.3636 449.867 81.4564 449.53 81.642C449.196 81.8277 448.933 82.0985 448.74 82.4545C448.547 82.8106 448.45 83.2424 448.45 83.75ZM459.534 89.1818C458.746 89.1818 458.055 88.9943 457.46 88.6193C456.869 88.2443 456.407 87.7197 456.074 87.0455C455.744 86.3712 455.579 85.5833 455.579 84.6818C455.579 83.7727 455.744 82.9792 456.074 82.3011C456.407 81.6231 456.869 81.0966 457.46 80.7216C458.055 80.3466 458.746 80.1591 459.534 80.1591C460.322 80.1591 461.011 80.3466 461.602 80.7216C462.197 81.0966 462.659 81.6231 462.989 82.3011C463.322 82.9792 463.489 83.7727 463.489 84.6818C463.489 85.5833 463.322 86.3712 462.989 87.0455C462.659 87.7197 462.197 88.2443 461.602 88.6193C461.011 88.9943 460.322 89.1818 459.534 89.1818ZM459.534 87.9773C460.132 87.9773 460.625 87.8239 461.011 87.517C461.398 87.2102 461.684 86.8068 461.869 86.3068C462.055 85.8068 462.148 85.2652 462.148 84.6818C462.148 84.0985 462.055 83.5549 461.869 83.0511C461.684 82.5473 461.398 82.1402 461.011 81.8295C460.625 81.5189 460.132 81.3636 459.534 81.3636C458.936 81.3636 458.443 81.5189 458.057 81.8295C457.67 82.1402 457.384 82.5473 457.199 83.0511C457.013 83.5549 456.92 84.0985 456.92 84.6818C456.92 85.2652 457.013 85.8068 457.199 86.3068C457.384 86.8068 457.67 87.2102 458.057 87.517C458.443 87.8239 458.936 87.9773 459.534 87.9773ZM466.396 77.3636V89H465.055V77.3636H466.396ZM471.918 89.1818C471.13 89.1818 470.439 88.9943 469.844 88.6193C469.253 88.2443 468.791 87.7197 468.457 87.0455C468.128 86.3712 467.963 85.5833 467.963 84.6818C467.963 83.7727 468.128 82.9792 468.457 82.3011C468.791 81.6231 469.253 81.0966 469.844 80.7216C470.439 80.3466 471.13 80.1591 471.918 80.1591C472.706 80.1591 473.395 80.3466 473.986 80.7216C474.581 81.0966 475.043 81.6231 475.372 82.3011C475.706 82.9792 475.872 83.7727 475.872 84.6818C475.872 85.5833 475.706 86.3712 475.372 87.0455C475.043 87.7197 474.581 88.2443 473.986 88.6193C473.395 88.9943 472.706 89.1818 471.918 89.1818ZM471.918 87.9773C472.516 87.9773 473.009 87.8239 473.395 87.517C473.781 87.2102 474.067 86.8068 474.253 86.3068C474.439 85.8068 474.531 85.2652 474.531 84.6818C474.531 84.0985 474.439 83.5549 474.253 83.0511C474.067 82.5473 473.781 82.1402 473.395 81.8295C473.009 81.5189 472.516 81.3636 471.918 81.3636C471.319 81.3636 470.827 81.5189 470.44 81.8295C470.054 82.1402 469.768 82.5473 469.582 83.0511C469.397 83.5549 469.304 84.0985 469.304 84.6818C469.304 85.2652 469.397 85.8068 469.582 86.3068C469.768 86.8068 470.054 87.2102 470.44 87.517C470.827 87.8239 471.319 87.9773 471.918 87.9773ZM480.962 92.4545C480.314 92.4545 479.757 92.3712 479.291 92.2045C478.826 92.0417 478.437 91.8258 478.127 91.5568C477.82 91.2917 477.576 91.0076 477.394 90.7045L478.462 89.9545C478.583 90.1136 478.737 90.2955 478.922 90.5C479.108 90.7083 479.362 90.8883 479.683 91.0398C480.009 91.1951 480.435 91.2727 480.962 91.2727C481.666 91.2727 482.248 91.1023 482.706 90.7614C483.165 90.4205 483.394 89.8864 483.394 89.1591V87.3864H483.28C483.182 87.5455 483.041 87.7424 482.86 87.9773C482.682 88.2083 482.424 88.4148 482.087 88.5966C481.754 88.7746 481.303 88.8636 480.735 88.8636C480.03 88.8636 479.397 88.697 478.837 88.3636C478.28 88.0303 477.839 87.5455 477.513 86.9091C477.191 86.2727 477.03 85.5 477.03 84.5909C477.03 83.697 477.187 82.9186 477.502 82.2557C477.816 81.589 478.254 81.0739 478.814 80.7102C479.375 80.3428 480.022 80.1591 480.757 80.1591C481.326 80.1591 481.776 80.2538 482.11 80.4432C482.447 80.6288 482.704 80.8409 482.882 81.0795C483.064 81.3144 483.204 81.5076 483.303 81.6591H483.439V80.2727H484.735V89.25C484.735 90 484.564 90.6098 484.223 91.0795C483.886 91.553 483.432 91.8996 482.86 92.1193C482.291 92.3428 481.659 92.4545 480.962 92.4545ZM480.916 87.6591C481.454 87.6591 481.909 87.536 482.28 87.2898C482.651 87.0436 482.933 86.6894 483.127 86.2273C483.32 85.7652 483.416 85.2121 483.416 84.5682C483.416 83.9394 483.322 83.3845 483.132 82.9034C482.943 82.4223 482.663 82.0455 482.291 81.7727C481.92 81.5 481.462 81.3636 480.916 81.3636C480.348 81.3636 479.875 81.5076 479.496 81.7955C479.121 82.0833 478.839 82.4697 478.649 82.9545C478.464 83.4394 478.371 83.9773 478.371 84.5682C478.371 85.1742 478.466 85.7102 478.655 86.1761C478.848 86.6383 479.132 87.0019 479.507 87.267C479.886 87.5284 480.356 87.6591 480.916 87.6591ZM487.573 92.2727C487.346 92.2727 487.143 92.2538 486.965 92.2159C486.787 92.1818 486.664 92.1477 486.596 92.1136L486.936 90.9318C487.262 91.0152 487.55 91.0455 487.8 91.0227C488.05 91 488.272 90.8883 488.465 90.6875C488.662 90.4905 488.842 90.1705 489.005 89.7273L489.255 89.0455L486.027 80.2727H487.482L489.891 87.2273H489.982L492.391 80.2727H493.846L490.141 90.2727C489.974 90.7235 489.768 91.0966 489.522 91.392C489.275 91.6913 488.989 91.9129 488.664 92.0568C488.342 92.2008 487.978 92.2727 487.573 92.2727ZM495.566 89.0909C495.285 89.0909 495.045 88.9905 494.844 88.7898C494.643 88.589 494.543 88.3485 494.543 88.0682C494.543 87.7879 494.643 87.5473 494.844 87.3466C495.045 87.1458 495.285 87.0455 495.566 87.0455C495.846 87.0455 496.087 87.1458 496.287 87.3466C496.488 87.5473 496.589 87.7879 496.589 88.0682C496.589 88.2538 496.541 88.4242 496.446 88.5795C496.356 88.7348 496.232 88.8598 496.077 88.9545C495.926 89.0455 495.755 89.0909 495.566 89.0909Z" fill="#98989A"/>
<rect opacity="0.2" x="22" y="22" width="86" height="86" rx="10" fill="white"/>
<path d="M73.3506 73.5902H47.5992V47.8394H73.3506V73.5902Z" fill="#101010"/>
<path fill-rule="evenodd" clip-rule="evenodd" d="M45.7598 47.8393C45.7598 46.8235 46.5833 46 47.5991 46H73.3505C74.3663 46 75.1899 46.8235 75.1899 47.8393V73.5902C75.1899 74.6061 74.3663 75.4296 73.3505 75.4296H47.5991C46.5833 75.4296 45.7598 74.6061 45.7598 73.5902V47.8393ZM49.4385 49.6787V71.7509H71.5112V49.6787H49.4385Z" fill="#101010"/>
<path d="M58.6357 79.1085C58.6357 81.4788 56.7142 83.4003 54.3439 83.4003C51.9736 83.4003 50.0521 81.4788 50.0521 79.1085C50.0521 76.7382 51.9736 74.8167 54.3439 74.8167C56.7142 74.8167 58.6357 76.7382 58.6357 79.1085Z" fill="#101010"/>
<path d="M80.7081 79.1085C80.7081 81.4788 78.7865 83.4003 76.4162 83.4003C74.0459 83.4003 72.1244 81.4788 72.1244 79.1085C72.1244 76.7382 74.0459 74.8167 76.4162 74.8167C78.7865 74.8167 80.7081 76.7382 80.7081 79.1085Z" fill="#101010"/>
<path fill-rule="evenodd" clip-rule="evenodd" d="M71.5109 57.6494C71.5109 56.6336 72.3344 55.8101 73.3502 55.8101H75.8032C80.8825 55.8101 84.9999 59.9275 84.9999 65.0068V73.5904C84.9999 74.6063 84.1764 75.4298 83.1606 75.4298H73.3502C72.3344 75.4298 71.5109 74.6063 71.5109 73.5904V57.6494ZM75.1896 59.4888V71.7511H81.3212V65.0068C81.3212 61.9592 78.8508 59.4888 75.8032 59.4888H75.1896Z" fill="#101010"/>
</svg>
