<svg width="37" height="37" viewBox="0 0 37 37" fill="none" xmlns="http://www.w3.org/2000/svg">
<path d="M22.1239 5.4044C25.9126 1.92847 30.8671 0 36.0086 0H36.9998V0.991307C36.9998 6.13289 35.0713 11.0875 31.5955 14.8761L15.8064 32.0856L4.91469 21.1936L22.1239 5.4044Z" fill="#FAB634"/>
<path d="M24.5091 8.35812C26.1622 6.84145 28.3241 6 30.5675 6H31V6.43254C31 8.67598 30.1585 10.8378 28.6419 12.4909L21.7525 20L17 15.2475L24.5091 8.35812Z" fill="black"/>
<path fill-rule="evenodd" clip-rule="evenodd" d="M8.76174 28.015C9.43673 28.6846 9.43673 29.7704 8.76174 30.4401L3.00038 36.1561C2.3254 36.8258 1.23103 36.8258 0.556044 36.1561C-0.118942 35.4865 -0.118942 34.4007 0.556044 33.731L6.3174 28.015C6.99239 27.3453 8.08675 27.3453 8.76174 28.015Z" fill="#FAB634"/>
<path fill-rule="evenodd" clip-rule="evenodd" d="M13.3709 32.588C14.0459 33.2576 14.0459 34.3434 13.3709 35.0131L12.2186 36.1563C11.5437 36.826 10.4493 36.826 9.77431 36.1563C9.09932 35.4866 9.09932 34.4008 9.77431 33.7312L10.9266 32.588C11.6016 31.9183 12.6959 31.9183 13.3709 32.588Z" fill="#FAB634"/>
<path fill-rule="evenodd" clip-rule="evenodd" d="M4.15265 23.442C4.82764 24.1116 4.82764 25.1974 4.15265 25.8671L3.00038 27.0103C2.3254 27.68 1.23103 27.68 0.556044 27.0103C-0.118942 26.3406 -0.118942 25.2548 0.556044 24.5852L1.70832 23.442C2.3833 22.7723 3.47767 22.7723 4.15265 23.442Z" fill="#FAB634"/>
<path d="M20.7617 37.0001L23.5053 23.7007L15.749 32.0268L20.7617 37.0001Z" fill="#FAB634"/>
<path d="M5.01271 21.2772L13.5414 13.3042L0 15.6822L5.01271 21.2772Z" fill="#FAB634"/>
</svg>
