<svg width="37" height="37" viewBox="0 0 37 37" fill="none" xmlns="http://www.w3.org/2000/svg">
<path d="M32.9531 0H31.7969C29.5618 0 27.75 1.81185 27.75 4.04688V32.9531C27.75 35.1882 29.5618 37 31.7969 37H32.9531C35.1882 37 37 35.1882 37 32.9531V4.04688C37 1.81185 35.1882 0 32.9531 0Z" fill="#101010"/>
<path d="M19.0781 16.1875H17.9219C15.6868 16.1875 13.875 17.9993 13.875 20.2344V32.9531C13.875 35.1882 15.6868 37 17.9219 37H19.0781C21.3132 37 23.125 35.1882 23.125 32.9531V20.2344C23.125 17.9993 21.3132 16.1875 19.0781 16.1875Z" fill="#101010"/>
<path d="M5.20312 23.125H4.04688C1.81185 23.125 0 24.9368 0 27.1719V32.9531C0 35.1882 1.81185 37 4.04688 37H5.20312C7.43815 37 9.25 35.1882 9.25 32.9531V27.1719C9.25 24.9368 7.43815 23.125 5.20312 23.125Z" fill="#101010"/>
<path d="M16.7652 0H8.67142C8.21329 0.00598929 7.77562 0.190641 7.45165 0.51461C7.12768 0.838579 6.94303 1.27625 6.93704 1.73438C6.94303 2.1925 7.12768 2.63017 7.45165 2.95414C7.77562 3.27811 8.21329 3.46276 8.67142 3.46875C10.1136 3.46875 10.8359 5.21243 9.81608 6.23221L0.508292 15.54C0.1835 15.8652 0.00106812 16.306 0.00106812 16.7656C0.00106812 17.2252 0.1835 17.6661 0.508292 17.9913C0.833488 18.316 1.27431 18.4985 1.73392 18.4985C2.19353 18.4985 2.63435 18.316 2.95954 17.9913L12.2673 8.68346C13.2871 7.66368 15.0308 8.38593 15.0308 9.82812C15.0308 10.2881 15.2135 10.7293 15.5388 11.0545C15.864 11.3798 16.3052 11.5625 16.7652 11.5625C17.2252 11.5625 17.6663 11.3798 17.9916 11.0545C18.3168 10.7293 18.4995 10.2881 18.4995 9.82812V1.73438C18.4936 1.27625 18.3089 0.838579 17.9849 0.51461C17.661 0.190641 17.2233 0.00598929 16.7652 0Z" fill="#101010"/>
</svg>
