<svg width="108" height="6" viewBox="0 0 108 6" fill="none" xmlns="http://www.w3.org/2000/svg">
<path d="M0.00390625 0.434128H3.74584V1.08091H0.763084V2.89644H3.42213V3.53566H0.763084V5.63865H0.00390625V0.434128ZM7.96949 3.73612C7.96949 4.58337 7.48393 5.04482 6.7286 5.04482C6.03879 5.04482 5.64572 4.65902 5.64572 3.88364V1.69743H4.91737V3.96685C4.91737 5.12803 5.60718 5.68404 6.64382 5.68404C7.21032 5.68404 7.7113 5.45331 8.00803 5.04482V5.63865H8.69784V1.69743H7.96949V3.73612ZM11.9195 5.08265C11.5187 5.08265 11.2914 4.84436 11.2914 4.42073V2.28748H12.4436V1.70122H11.2914V0.83884H10.563V1.70122H9.88093V2.28748H10.563V4.45099C10.563 5.24529 11.0255 5.68404 11.8348 5.68404C12.1585 5.68404 12.4937 5.59326 12.7134 5.40793L12.486 4.89353C12.3357 5.01078 12.1315 5.07886 11.9195 5.07886V5.08265ZM16.9871 3.73612C16.9871 4.58337 16.5016 5.04482 15.7463 5.04482C15.0564 5.04482 14.6634 4.65902 14.6634 3.88364V1.69743H13.935V3.96685C13.935 5.12803 14.6248 5.68404 15.6615 5.68404C16.228 5.68404 16.7289 5.45331 17.0257 5.04482V5.63865H17.7155V1.69743H16.9871V3.73612ZM20.1741 2.35935V1.69743H19.4766V5.63865H20.205V3.67561C20.205 2.81323 20.6905 2.34422 21.469 2.34422C21.5229 2.34422 21.573 2.34422 21.6347 2.35178V1.65961C20.9295 1.65961 20.4323 1.8979 20.1741 2.35935ZM26.4981 3.69074C26.4981 3.75126 26.4904 3.83825 26.4826 3.90633H23.2263C23.3188 4.5985 23.8853 5.05995 24.6791 5.05995C25.1493 5.05995 25.5423 4.90487 25.8391 4.58337L26.2399 5.04482C25.8776 5.46088 25.3227 5.68404 24.656 5.68404C23.3612 5.68404 22.4979 4.84436 22.4979 3.66804C22.4979 2.49173 23.3534 1.65961 24.5134 1.65961C25.6734 1.65961 26.4981 2.4766 26.4981 3.69074ZM25.8005 3.39193C25.7273 2.73002 25.2186 2.261 24.5134 2.261C23.8082 2.261 23.3033 2.72245 23.2263 3.39193H25.8005ZM34.1014 3.66804C34.1014 4.84436 33.2228 5.68404 32.0166 5.68404C30.8103 5.68404 29.9278 4.84436 29.9278 3.66804C29.9278 2.49173 30.8142 1.65961 32.0166 1.65961C33.2189 1.65961 34.1014 2.49173 34.1014 3.66804ZM33.3653 3.66804C33.3653 2.82836 32.7911 2.2837 32.0166 2.2837C31.242 2.2837 30.66 2.82458 30.66 3.66804C30.66 4.51151 31.242 5.05995 32.0166 5.05995C32.7911 5.05995 33.3653 4.51151 33.3653 3.66804ZM35.5889 1.34946V1.69743H34.9068V2.2837H35.5889V5.63865H36.3173V2.2837H37.4695V1.69743H36.3019V1.35702C36.3019 0.903138 36.5215 0.664852 36.9531 0.664852C37.1651 0.664852 37.3616 0.740498 37.5119 0.850187L37.7316 0.30931C37.5273 0.154233 37.2229 0.0785855 36.9146 0.0785855C36.0591 0.0785855 35.5889 0.585422 35.5889 1.34946ZM46.3677 4.68928L44.9072 0.437908H44.2096L42.7183 4.67037L41.2847 0.437908H40.5062L42.2789 5.64243H43.0882L44.5372 1.48562L45.9862 5.64243H46.7801L48.5528 0.437908H47.8321L46.3716 4.68928H46.3677ZM53.0693 3.69452C53.0693 3.75504 53.0616 3.84203 53.0539 3.91011H49.7975C49.89 4.60228 50.4565 5.06373 51.2503 5.06373C51.7205 5.06373 52.1136 4.90866 52.4103 4.58715L52.8111 5.0486C52.4488 5.46466 51.8939 5.68782 51.2272 5.68782C49.9324 5.68782 49.0692 4.84814 49.0692 3.67183C49.0692 2.49551 49.9247 1.66339 51.0846 1.66339C52.2446 1.66339 53.0693 2.48038 53.0693 3.69452ZM52.3718 3.39571C52.2947 2.7338 51.7899 2.26479 51.0846 2.26479C50.3794 2.26479 49.8707 2.72623 49.7975 3.39571H52.3756H52.3718ZM58.6109 3.67183C58.6109 4.87461 57.7554 5.68782 56.58 5.68782C55.9904 5.68782 55.474 5.46466 55.1464 5.01834V5.64243H54.4489V0.123975H55.1773V2.29505C55.5087 1.87142 56.0097 1.66339 56.58 1.66339C57.7554 1.66339 58.6109 2.46525 58.6109 3.67183ZM57.8748 3.67183C57.8748 2.83214 57.2929 2.28748 56.5183 2.28748C55.7438 2.28748 55.1696 2.82836 55.1696 3.67183C55.1696 4.51529 55.7515 5.06373 56.5183 5.06373C57.2852 5.06373 57.8748 4.51529 57.8748 3.67183ZM61.5243 2.62411L62.9116 0.944746V0.437908H59.4125V1.08469H61.9636L60.6302 2.69219V3.21416H61.0541C61.9636 3.21416 62.3644 3.5697 62.3644 4.12193C62.3644 4.67415 61.9097 5.04482 61.1158 5.04482C60.4645 5.04482 59.8749 4.8141 59.5165 4.48881L59.1697 5.07508C59.6167 5.46844 60.3605 5.70673 61.1158 5.70673C62.4646 5.70673 63.1236 4.99187 63.1236 4.11436C63.1236 3.3125 62.5841 2.72245 61.5243 2.62789V2.62411ZM67.8097 3.31628H70.4687V2.68463H67.8097V1.08469H70.7963V0.437908H67.0544V5.64243H70.9042V4.99565H67.8135V3.31628H67.8097ZM75.4053 0.127755H76.1337V5.64622H75.4361V5.02213C75.1086 5.46844 74.596 5.6916 74.0026 5.6916C72.8272 5.6916 71.9717 4.88218 71.9717 3.67561C71.9717 2.46904 72.8272 1.66717 74.0026 1.66717C74.5691 1.66717 75.07 1.87521 75.4053 2.29883V0.127755ZM75.413 3.67561C75.413 2.83592 74.8311 2.29126 74.0642 2.29126C73.2973 2.29126 72.7077 2.83214 72.7077 3.67561C72.7077 4.51907 73.2896 5.06752 74.0642 5.06752C74.8388 5.06752 75.413 4.51907 75.413 3.67561ZM80.9007 3.74369C80.9007 4.59094 80.4151 5.05239 79.6598 5.05239C78.97 5.05239 78.5769 4.66659 78.5769 3.8912V1.705H77.8485V3.97442C77.8485 5.1356 78.5384 5.6916 79.575 5.6916C80.1415 5.6916 80.6425 5.46088 80.9392 5.05239V5.64622H81.629V1.705H80.9007V3.74369ZM85.132 2.29505C85.5714 2.29505 85.9644 2.47282 86.2226 2.85862L86.7737 2.51064C86.4538 1.9622 85.8565 1.67096 85.1359 1.67096C83.9027 1.67096 83.0164 2.50308 83.0164 3.67939C83.0164 4.8557 83.9027 5.69539 85.1359 5.69539C85.8565 5.69539 86.4538 5.39658 86.7737 4.84814L86.2226 4.50773C85.9644 4.89353 85.5714 5.0713 85.132 5.0713C84.3459 5.0713 83.7524 4.5342 83.7524 3.67939C83.7524 2.82458 84.342 2.29505 85.132 2.29505ZM91.2748 3.2709V5.65H90.585V5.12803C90.3422 5.48357 89.8952 5.6916 89.267 5.6916C88.3576 5.6916 87.7834 5.21503 87.7834 4.53042C87.7834 3.89877 88.1996 3.3768 89.3981 3.3768H90.5503V3.23685C90.5503 2.63546 90.1958 2.2837 89.4751 2.2837C88.9973 2.2837 88.5117 2.44634 88.2034 2.70732L87.899 2.17023C88.3152 1.84495 88.9125 1.66339 89.5599 1.66339C90.6582 1.66339 91.2787 2.18536 91.2787 3.26333L91.2748 3.2709ZM90.5465 3.89498H89.425C88.7044 3.89498 88.5002 4.1711 88.5002 4.50394C88.5002 4.89731 88.8316 5.14316 89.3865 5.14316C89.9414 5.14316 90.3654 4.89731 90.5465 4.44343V3.89498ZM94.4618 5.09021C94.061 5.09021 93.8337 4.85192 93.8337 4.4283V2.29505H94.9859V1.70878H93.8337V0.846404H93.1053V1.70878H92.4232V2.29505H93.1053V4.45856C93.1053 5.25285 93.5678 5.6916 94.377 5.6916C94.7008 5.6916 95.036 5.60083 95.2557 5.41549L95.0283 4.90109C94.878 5.01834 94.6738 5.08643 94.4618 5.08643V5.09021ZM96.8781 0.0180664C96.5968 0.0180664 96.3848 0.226098 96.3848 0.487081C96.3848 0.748064 96.5968 0.948529 96.8781 0.948529C97.1594 0.948529 97.3714 0.740498 97.3714 0.471951C97.3714 0.218533 97.1594 0.0180664 96.8781 0.0180664ZM96.512 5.64622H97.2403V1.705H96.512V5.64622ZM102.805 3.67561C102.805 4.85192 101.926 5.6916 100.72 5.6916C99.514 5.6916 98.6315 4.85192 98.6315 3.67561C98.6315 2.4993 99.5179 1.66717 100.72 1.66717C101.923 1.66717 102.805 2.4993 102.805 3.67561ZM102.069 3.67561C102.069 2.83592 101.495 2.29126 100.72 2.29126C99.9456 2.29126 99.3637 2.83214 99.3637 3.67561C99.3637 4.51907 99.9456 5.06752 100.72 5.06752C101.495 5.06752 102.069 4.51907 102.069 3.67561ZM106.331 1.66717C105.695 1.66717 105.179 1.8979 104.882 2.29883V1.705H104.185V5.64622H104.913V3.61509C104.913 2.76028 105.414 2.30639 106.185 2.30639C106.875 2.30639 107.268 2.68463 107.268 3.46001V5.64622H107.996V3.3768C107.996 2.21562 107.306 1.66717 106.327 1.66717H106.331Z" fill="white"/>
</svg>
