<svg width="108" height="30" viewBox="0 0 108 30" fill="none" xmlns="http://www.w3.org/2000/svg">
<path d="M69.3359 20.4399C69.3359 25.1716 65.4167 29.0182 60.5957 29.0182H42.2906C40.7993 29.0182 39.5931 27.8344 39.5931 26.3706C39.5931 24.9068 40.7993 23.7229 42.2906 23.7229H60.5957C62.4416 23.7229 63.9407 22.2516 63.9407 20.4399C63.9407 18.6281 62.4416 17.1568 60.5957 17.1568C60.5957 17.1568 54.3103 17.1568 54.3065 17.1568H47.5586C42.7415 17.1568 38.8185 13.3101 38.8185 8.57839C38.8185 3.84666 42.7415 0 47.5625 0H65.8714C67.3628 0 68.569 1.18388 68.569 2.64765C68.569 4.11142 67.3628 5.2953 65.8714 5.2953H47.5625C45.7166 5.2953 44.2175 6.76664 44.2175 8.57839C44.2175 10.3901 45.7166 11.8615 47.5625 11.8615H60.5995C65.4205 11.8615 69.3397 15.7081 69.3397 20.4399H69.3359ZM107.996 8.64269C107.996 10.9424 107.013 13.0151 105.441 14.494C107.013 15.9691 107.996 18.0456 107.996 20.3453V20.4928C107.996 24.9673 104.285 28.6098 99.7261 28.6098H82.2496C82.0107 28.6098 81.7795 28.5757 81.5637 28.5076C80.6233 28.2202 79.9374 27.3578 79.9374 26.3403V2.64765C79.9374 1.39569 80.974 0.378236 82.2496 0.378236C82.2843 0.378236 82.3151 0.378236 82.3498 0.382018C82.3845 0.382018 82.4153 0.378236 82.45 0.378236H99.73C104.289 0.378236 108 4.02065 108 8.49518V8.64269H107.996ZM103.372 20.3453C103.372 18.3709 101.738 16.7672 99.7261 16.7672H98.6471V16.7596H84.5618V24.0709H99.7261C101.738 24.0709 103.372 22.4672 103.372 20.4928V20.3453ZM103.372 8.49518C103.372 6.52078 101.738 4.91707 99.7261 4.91707H84.5618V12.2208H99.7261C101.738 12.2208 103.372 10.6171 103.372 8.64269V8.49518ZM20.3053 15.4396L24.6407 14.4902C24.7756 14.46 24.9143 14.4448 25.0492 14.4448C25.1841 14.4448 25.3228 14.46 25.4577 14.4902L26.0126 14.6112L18.8794 2.03491C18.4093 1.20657 17.5268 0.688389 16.5595 0.67326C15.5922 0.650566 14.6943 1.15362 14.2011 1.97061L0.377851 24.8236C-0.381327 26.0794 0.038726 27.7058 1.32201 28.4509C2.60143 29.196 4.25852 28.7837 5.0177 27.5242L16.4478 8.62756L20.3053 15.4358V15.4396ZM29.6621 21.0564L25.4538 21.9755C25.319 22.0058 25.1802 22.0209 25.0454 22.0209C24.9105 22.0209 24.7717 22.0058 24.6369 21.9755L23.9201 21.8166L27.2304 27.6528C27.7237 28.5228 28.6447 29.0145 29.5889 29.0145C30.032 29.0145 30.4829 28.9086 30.8991 28.6816C32.2017 27.9705 32.668 26.3593 31.9435 25.0808L29.6621 21.0526V21.0564ZM25.0454 15.9616L24.9721 15.9691L14.6211 18.2347L17.1491 18.787V22.6904C16.8177 22.8341 16.5865 23.1669 16.5865 23.5527C16.5865 23.878 16.7522 24.1655 16.9988 24.3319C16.7484 24.4983 16.5865 24.7858 16.5865 25.1111C16.5865 25.1489 16.5865 25.1867 16.5942 25.2245V28.4849H18.4401V25.1111C18.4401 24.7858 18.2744 24.4983 18.0278 24.3319C18.2783 24.1655 18.4401 23.878 18.4401 23.5527C18.4401 23.1669 18.2089 22.8341 17.8775 22.6904V18.9458L24.976 20.5004L25.0492 20.5079L25.1224 20.5004L35.4735 18.2347L25.1224 15.9691L25.0492 15.9616H25.0454Z" fill="white"/>
</svg>
